#!OML:ASF F:\VICON\USERDATA\INSTALL\rory3\rory3.ASF
:FULLY-SPECIFIED
:DEGREES
86
root 0.008554644201606704 17.78907204368269 32.81664617082621 3.5236878937702003 -0.795685308541527 -6.617919678124594
lfemur -18.286455659653054 7.930010972494656 -7.420365267789952
ltibia 85.12486073842032
lfoot 6.61117145020127 -9.701854221428922
ltoes 0.10772211855734781
rfemur -29.120112670142703 -0.7197443253047089 33.186339037678714
rtibia 100.55675681928358
rfoot -27.456508476412406 -25.043319416076148
rtoes -14.24835280155838
lowerback nan 0.26346925165869595 4.16462366212783
upperback -0.36363970248977684 0.28056001437673506 3.5649931397667656
thorax -9.525945820603198 0.6644055324114133 1.4579905998001728
lowerneck -21.564869170024124 -3.2205019027217183 -0.9667630417277717
upperneck 9.45928139039692 -5.640211988350135 4.082623251954115
head 6.811291672884403 -2.2684497746311774 0.8632686270656628
lclavicle -8.4396990232559755e-16 -3.274376745392152e-14
lhumerus -55.266044415056996 -11.996688153526861 99.94334524299572
lradius 99.359627445165
lwrist 26.4556217742813
lhand -22.89268012071566 6.388049366595809
lfingers nan
lthumb 3.5136999450716835 36.584028504472194
rclavicle -3.4759961375840397e-15 -3.401342829529806e-14
rhumerus -42.79235772168653 6.323637648392259 -94.68121887560613
rradius 101.15216640329474
rwrist -11.34220383142989
rhand -13.125444925756995 nan
rfingers nan
rthumb 12.696966687038255 7.866521862562715
87
root -0.012521188843036407 17.78308855602578 32.773549322752075 3.618386655139686 -0.5966495141240398 -6.135111162301527
lfemur -21.6717031249884 8.925837011643765 -7.407578006235841
ltibia 86.31748774499981
lfoot 4.978365910531558 -9.60267639418202
ltoes -1.9584254010565694
rfemur -27.768121783406336 -0.19576514229119568 32.580816116794374
rtibia 100.46258421052201
rfoot -27.535193800428157 -25.580903722325736
rtoes -16.697784800390107
lowerback nan 0.541751774207331 3.5491433557109247
upperback -0.25997386119325017 0.49770149477153236 3.3322530526803997
thorax -9.19683878212864 0.7788898124226019 1.4577613250331423
lowerneck -22.390455129498733 -3.4130959912526246 -0.968418324058129
upperneck 9.684123109665922 -5.863818655816102 4.182317428265503
head 6.951534180441842 -2.366918015214225 0.8650675808490891
lclavicle 1.2490913444301141e-14 1.7634769320634356e-16
lhumerus -56.80634159661941 -11.803948876375557 99.77751537477951
lradius 100.26107294450047
lwrist 27.075278768296972
lhand -24.337539084508887 2.294708563861377
lfingers nan
lthumb 2.1209151537429167 32.504760947666824
rclavicle 1.0272557827306958e-14 -1.1387392816721853e-15
rhumerus -41.302693616219 7.330702710708584 -94.90110443191621
rradius 101.91142942589644
rwrist -12.622009307665294
rhand -14.154324122684368 nan
rfingers nan
rthumb 11.707458141311895 7.793846599095914
88
root -0.009453741388884163 17.78229186521056 32.79712090806909 3.7177333286621588 0.26946049807551165 -5.978831220761576
lfemur -25.134549219991563 9.11545553238832 -7.343017457397462
ltibia 87.28906003139971
lfoot 3.589539782832379 -9.21105987087427
ltoes -3.760036412184533
rfemur -26.211084670414714 -0.22566143016209872 32.436766730078176
rtibia 100.06283883429629
rfoot -27.574811002828174 -25.985267301780922
rtoes -19.141099300310525
lowerback nan 0.515872504509744 3.7593170565219682
upperback -0.38199197055653733 0.5310644309072974 3.185293923083103
thorax -9.218896837327293 0.7556163884565397 1.1463863505005065
lowerneck -22.852871187260128 -3.5652997819851913 -0.9520183511264428
upperneck 9.89608207132681 -6.016793514695923 4.251030230232011
head 7.047513668443939 -2.4463503277609564 0.8600852055200897
lclavicle -8.761157762490863e-15 -7.049101446036433e-15
lhumerus -58.74158806790505 -11.651640902427147 99.74775461135302
lradius 101.43355721274564
lwrist 27.53354350690461
lhand -24.745334321710025 0.3577947971559017
lfingers nan
lthumb 1.723002331788503 30.56335981368791
rclavicle -1.0799363919746769e-14 -8.167871843535767e-15
rhumerus -40.232807263168 8.158080555529459 -94.99840691061681
rradius 102.86545464542739
rwrist -15.619369272497543
rhand -15.308005557580909 nan
rfingers nan
rthumb 10.59761210359142 8.07520470904033
89
root 0.00762520018166038 17.799260386706063 33.070724916558895 3.7530572230305497 0.8723201828250216 -6.1682230830942
lfemur -28.197523134446804 9.434610354216748 -7.065095501858803
ltibia 87.9823386532
lfoot 2.3623220852013183 -9.083584084794332
ltoes -3.8578092942968167
rfemur -24.352626793630293 -0.1302094027672358 32.72268846701277
rtibia 99.3546928815232
rfoot -27.571093643564087 -26.021026444798334
rtoes -21.217140062875274
lowerback nan 0.5535255540757756 4.4004343212987305
upperback -0.49071539566956135 0.7248224412125762 3.1382037240130582
thorax -9.368104096923707 0.7969927313209717 0.6654092142110819
lowerneck -23.46753464597738 -3.737231780865456 -0.9741901886796909
upperneck 10.217424007866173 -6.184754293799325 4.271158163086524
head 7.196989623319742 -2.5413280903506963 0.833819657466484
lclavicle -1.4114214744636602e-14 -1.2310085817964357e-14
lhumerus -60.49899867880065 -11.63098593761729 99.70630653013279
lradius 102.56374047480939
lwrist 28.15611981191911
lhand -24.49808593580928 0.9560406377522579
lfingers nan
lthumb 1.9672527002805096 31.1863304877369
rclavicle -1.604886208555026e-14 -1.3395817646017192e-14
rhumerus -39.45626849658524 8.752805477107714 -95.03998603550913
rradius 103.74064325442147
rwrist -19.644153145317908
rhand -16.311095039573754 nan
rfingers nan
rthumb 9.631995267644637 8.396345451316709
90
root 0.03130085798247956 17.835869899315416 33.59669424692055 3.6862393778892204 1.2327687080005367 -6.24928461821286
lfemur -30.94773823199374 9.827834724519978 -7.099820964198683
ltibia 88.18943300901446
lfoot 1.2357347240178969 -8.971111229604944
ltoes -4.531567041196915
rfemur -22.37140542949912 -0.051275958047329984 32.909341775525625
rtibia 98.43097824875808
rfoot -27.29812422951157 -25.453777527423153
rtoes -23.648463879380976
lowerback nan 0.6409902661706053 4.825461445957606
upperback -0.3648913881612522 0.9328476331906251 3.1623211964198275
thorax -9.157239029924158 0.8651053056745521 0.35740876947877065
lowerneck -24.06793668789099 -3.885898419194293 -1.1552956266916659
upperneck 10.35551561074502 -6.293096172302854 4.24990684997784
head 7.30802131050936 -2.633956054378155 0.8080774132189887
lclavicle -1.1324926291925926e-14 -3.120183875573312e-14
lhumerus -61.837605861050875 -11.47292725606108 99.63740423823461
lradius 103.72476067497506
lwrist 29.39039417610017
lhand -24.26837287269987 2.1187570850043125
lfingers nan
lthumb 2.1954445406943623 32.356289778510394
rclavicle -1.3847818717915136e-14 -3.272109443027378e-14
rhumerus -38.65013492787719 9.523507428097131 -94.95164934701644
rradius 104.7887669068497
rwrist -22.74944612317929
rhand -16.81093602041238 nan
rfingers nan
rthumb 9.15754531999084 8.428331975575938
91
root 0.06914656002373287 17.876797765983685 33.798117613442926 3.6176387422291723 2.145324527645676 -6.039017414487075
lfemur -33.64451872667397 9.332012259190588 -7.75097136609002
ltibia 87.83518775179856
lfoot -0.2980902615764167 -8.18106739837528
ltoes -6.599384905962985
rfemur -20.438267074836926 -0.6893065719379587 32.89287624233167
rtibia 97.37112297627922
rfoot -26.65108926717473 -24.478730308036635
rtoes -26.286967593177387
lowerback nan 0.567213403891075 5.376840289874257
upperback -0.36477960370051954 0.9739451068433159 3.012582842037925
thorax -8.875097451374566 0.8334453350905604 -0.12161771067630878
lowerneck -24.145397576614428 -4.037730939578031 -1.2462606741996345
upperneck 10.580866319878824 -6.436650101041259 4.282607884517414
head 7.386520981945085 -2.7426765381281757 0.7967805422228191
lclavicle -1.3355856109863477e-14 -2.8306103006681976e-14
lhumerus -63.135707524680214 -11.554424087986218 99.67065038532834
lradius 104.67897688423453
lwrist 30.199964542954824
lhand -23.992146243584333 2.3546774379373523
lfingers nan
lthumb 2.4572220208427766 32.58146553406422
rclavicle -1.5755159019813473e-14 -2.989200742707368e-14
rhumerus -38.69525053674768 9.48591161917002 -95.20788115445592
rradius 106.57653458246742
rwrist -23.16447745514121
rhand -16.794738226449386 nan
rfingers nan
rthumb 9.189895863476496 9.136998521396986
92
root 0.10639111063878764 17.92300318096274 33.740867803975696 3.649221470595677 3.18566822749119 -5.720589876447182
lfemur -36.24657989747285 8.618722329232984 -8.624887360822742
ltibia 87.05259983460417
lfoot -2.9123825883235805 -6.74978383605531
ltoes -10.688173354892863
rfemur -18.640602683350373 -1.586148056540244 32.74415655690719
rtibia 96.208790967896
rfoot -25.6961158929915 -23.442521346214164
rtoes -28.48444477121307
lowerback nan 0.5267549127701533 6.0758871513356745
upperback -0.6782275756267243 1.0872890689485675 2.5981347302056648
thorax -8.843391752623443 0.8106920346521698 -0.8814956886011445
lowerneck -23.451107602780535 -4.227980391532603 -1.0163540716187223
upperneck 10.621559804014545 -6.7110850358343574 4.313768636415075
head 7.334586269363831 -2.913241535719016 0.7463223584797273
lclavicle -5.479557066594155e-15 -1.8510909793077365e-14
lhumerus -64.58431293611986 -11.990031683622846 99.66376897020139
lradius 105.46704440822013
lwrist 30.455509616402765
lhand -23.87325241266887 1.29418127367048
lfingers nan
lthumb 2.5687428312093776 31.511429503296498
rclavicle -8.000753735683937e-15 -2.0294061337904854e-14
rhumerus -37.65683066630652 10.043639206927919 -95.20366033988212
rradius 107.25356000718475
rwrist -23.76377944888187
rhand -17.596102534177653 nan
rfingers nan
rthumb 8.42496198519008 9.384438555700306
